<svg width="89" height="56" viewBox="0 0 89 56" fill="none" xmlns="http://www.w3.org/2000/svg">
<g clip-path="url(#clip0_45_19)">
<path d="M35.8284 47.0195C34.2663 45.4574 34.2663 42.9247 35.8284 41.3626L74.3626 2.82843C75.9247 1.26633 78.4574 1.26633 80.0195 2.82843L85.6735 8.48238C87.2356 10.0445 87.2355 12.5771 85.6735 14.1392L47.1392 52.6735C45.5771 54.2355 43.0445 54.2355 41.4824 52.6735L35.8284 47.0195Z" fill="#F8F0E3"/>
<path d="M8.48237 2.82842C10.0445 1.26633 12.5771 1.26633 14.1392 2.82843L52.6734 41.3626C54.2355 42.9247 54.2355 45.4574 52.6734 47.0195L47.0195 52.6735C45.4574 54.2356 42.9247 54.2355 41.3626 52.6735L2.82841 14.1392C1.26631 12.5771 1.26631 10.0445 2.82841 8.48238L8.48237 2.82842Z" fill="#F8F0E3"/>
</g>
<defs>
<clipPath id="clip0_45_19">
<rect width="88.5019" height="55.5019" fill="white"/>
</clipPath>
</defs>
</svg>
