<svg width="76" height="77" viewBox="0 0 76 77" fill="none" xmlns="http://www.w3.org/2000/svg">
<path d="M75.2819 31.3433C76.4187 30.1781 75.7615 28.2154 74.1523 27.9696L51.4151 24.4966C50.7557 24.3959 50.1899 23.9731 49.9065 23.3693L39.8105 1.85766C39.0907 0.323964 36.9093 0.323965 36.1895 1.85766L26.0935 23.3693C25.8101 23.9731 25.2443 24.3959 24.5849 24.4966L1.8477 27.9696C0.238478 28.2154 -0.418667 30.1781 0.718137 31.3433L17.2952 48.3344C17.7384 48.7887 17.9397 49.4265 17.8376 50.0529L13.9429 73.9353C13.6742 75.583 15.4232 76.8153 16.8843 76.0076L37.0324 64.8703C37.6345 64.5375 38.3655 64.5375 38.9676 64.8703L59.1156 76.0076C60.5768 76.8153 62.3258 75.583 62.0571 73.9353L58.1624 50.0529C58.0603 49.4265 58.2616 48.7887 58.7048 48.3344L75.2819 31.3433Z" fill="#FFB800"/>
</svg>
