<svg width="64" height="64" viewBox="0 0 64 64" fill="none" xmlns="http://www.w3.org/2000/svg">
<path d="M62.0859 54.2026L47.5604 39.6772C49.9833 35.7563 51.3825 31.1358 51.3825 26.1913C51.3825 12.0018 39.8807 0.5 25.6913 0.5C11.5018 0.5 0 12.0018 0 26.1913C0 40.3807 11.5018 51.8825 25.6913 51.8825C30.6358 51.8825 35.2563 50.4833 39.1772 48.0604L53.7026 62.5859C55.2401 64.1234 57.7539 64.1234 59.2915 62.5859L62.0859 59.7915C63.6234 58.2539 63.6234 55.7401 62.0859 54.2026ZM13.1144 38.7681C9.75477 35.4085 7.905 30.9422 7.905 26.1913C7.905 21.4403 9.75477 16.974 13.1144 13.6144C16.474 10.2548 20.9403 8.405 25.6913 8.405C30.4422 8.405 34.9085 10.2548 38.2681 13.6144C41.6277 16.974 43.4775 21.4403 43.4775 26.1913C43.4775 30.9422 41.6277 35.4085 38.2681 38.7681C34.9085 42.1277 30.4422 43.9775 25.6913 43.9775C20.9403 43.9775 16.474 42.1277 13.1144 38.7681Z" fill="black"/>
</svg>
