<svg width="100" height="100" viewBox="0 0 100 100" fill="none" xmlns="http://www.w3.org/2000/svg">
<rect width="100" height="100" rx="6" fill="white"/>
<path d="M24.548 43.8911C26.1101 42.329 28.6427 42.329 30.2048 43.8911L55.5656 69.2518L47.0803 77.7371C45.5182 79.2992 42.9855 79.2992 41.4234 77.7371L18.8911 55.2048C17.329 53.6427 17.329 51.11 18.8911 49.5479L24.548 43.8911Z" fill="#2C2B3C"/>
<path d="M35.8284 72.0195C34.2663 70.4574 34.2663 67.9247 35.8284 66.3626L74.3626 27.8284C75.9247 26.2663 78.4574 26.2663 80.0195 27.8284L85.6735 33.4824C87.2356 35.0445 87.2355 37.5771 85.6735 39.1392L47.1392 77.6735C45.5771 79.2355 43.0445 79.2355 41.4824 77.6735L35.8284 72.0195Z" fill="#2C2B3C"/>
</svg>
